<svg width="120" height="31" viewBox="0 0 120 31" fill="none" xmlns="http://www.w3.org/2000/svg">
<path d="M117.244 28.1689C117.244 28.0392 117.289 27.9422 117.38 27.8774C117.471 27.8002 117.581 27.7483 117.71 27.7224C117.852 27.6835 117.988 27.6643 118.117 27.6643C118.26 27.6643 118.383 27.6643 118.486 27.6643C118.616 27.6643 118.764 27.6705 118.932 27.6835C119.114 27.6835 119.282 27.7094 119.437 27.7613C119.592 27.8002 119.722 27.8712 119.825 27.9749C119.942 28.0651 120 28.1948 120 28.3628C120 28.4276 119.993 28.5697 119.98 28.7895C119.98 28.997 119.974 29.2231 119.961 29.4689C119.961 29.7153 119.955 29.9413 119.942 30.1482C119.942 30.3427 119.935 30.4459 119.922 30.4588C119.819 30.6015 119.683 30.6787 119.515 30.6917C119.36 30.7176 119.211 30.7306 119.068 30.7306C118.667 30.7306 118.37 30.7114 118.176 30.6725C117.981 30.6336 117.839 30.5558 117.749 30.4397C117.658 30.323 117.6 30.1612 117.574 29.9543C117.561 29.7474 117.529 29.4757 117.477 29.1391C117.438 28.9841 117.387 28.8284 117.322 28.6734C117.27 28.5178 117.244 28.3498 117.244 28.1689Z" fill="#FF004D"/>
<path d="M15.3704 28.7255C15.3704 28.9842 15.3055 29.1911 15.1759 29.3468C15.0598 29.5018 14.8529 29.5796 14.5553 29.5796C14.3997 29.5796 14.2379 29.5598 14.0699 29.5209C13.9019 29.495 13.7402 29.4499 13.5846 29.385C13.2616 29.2949 13.0029 29.2109 12.8083 29.1331C12.6274 29.0553 12.4848 28.9521 12.3817 28.8224C12.2909 28.7057 12.2328 28.5507 12.2069 28.3568C12.181 28.1623 12.1618 27.8973 12.1488 27.5607C12.0451 24.9082 11.929 22.2817 11.7993 19.6811C11.6826 17.067 11.4887 14.4403 11.217 11.8007C11.0361 12.6935 10.8613 13.5864 10.6934 14.4791C10.5248 15.3719 10.3501 16.2777 10.1691 17.1964C9.98819 18.1538 9.81344 19.1308 9.64548 20.127C9.48987 21.1237 9.23792 22.0878 8.88841 23.0191C8.74576 23.3946 8.57163 23.6922 8.36415 23.9121C8.15728 24.119 7.84049 24.2227 7.41318 24.2227C7.10257 24.2227 6.85063 24.1709 6.65673 24.0671C6.46221 23.951 6.27512 23.7824 6.09357 23.5625C5.92561 23.3816 5.74468 23.032 5.55016 22.5145C5.35626 21.997 5.1494 21.3955 4.92956 20.7093C4.72208 20.0109 4.51523 19.2667 4.30836 18.4774C4.1015 17.6882 3.90699 16.9311 3.72606 16.2065C3.54513 15.469 3.38333 14.7962 3.24069 14.188C3.09866 13.5799 2.98875 13.1205 2.91094 12.81V15.4496C2.91094 17.1705 2.94304 18.885 3.00788 20.5932C3.07272 22.3008 3.18264 24.0023 3.33825 25.6975C3.37653 26.073 3.42841 26.4479 3.49325 26.8233C3.57105 27.1988 3.60933 27.5737 3.60933 27.9492C3.60933 28.2851 3.49324 28.5056 3.26044 28.6088C3.04061 28.7125 2.79484 28.7644 2.52313 28.7644C1.78521 28.7644 1.21588 28.6088 0.815114 28.2981C0.426702 27.9751 0.232809 27.4317 0.232809 26.6683C0.232809 25.1022 0.193909 23.5496 0.116103 22.01C0.0389146 20.4703 0 18.9171 0 17.3517C0 17.1317 0 16.75 0 16.2065C0.0129677 15.6631 0.0259469 15.0226 0.0389146 14.2851C0.0518822 13.5346 0.0648426 12.7259 0.0778103 11.8589C0.103746 10.9791 0.129063 10.0927 0.154999 9.1999C0.180934 8.30707 0.206874 7.44012 0.232809 6.5991C0.258744 5.74506 0.284684 4.98168 0.310619 4.30883C0.336555 3.63598 0.36249 3.0796 0.387808 2.63964C0.426711 2.18677 0.465611 1.91504 0.504514 1.82444C0.569352 1.64331 0.640371 1.52683 0.718176 1.47508C0.808333 1.42333 0.944186 1.39745 1.12573 1.39745C1.61727 1.39745 2.02481 1.50744 2.34839 1.72742C2.68431 1.93443 2.91094 2.29028 3.02765 2.7949C3.20858 3.06664 3.41545 3.56483 3.64825 4.28943C3.88105 5.00107 4.12744 5.83566 4.38617 6.79315C4.64491 7.7507 4.90364 8.78582 5.16237 9.89863C5.43407 10.9985 5.68602 12.0595 5.91882 13.0817C6.16459 14.1039 6.38504 15.042 6.57894 15.896C6.7858 16.75 6.94758 17.4035 7.06429 17.8561C7.43911 15.6308 7.82073 13.4181 8.20915 11.2184C8.59694 9.01876 8.96622 6.80611 9.31511 4.58056C9.37995 4.20532 9.44479 3.8365 9.50963 3.47423C9.58682 3.1119 9.62571 2.74315 9.62571 2.36791C9.62571 2.13502 9.59359 1.92153 9.52876 1.72742C9.46392 1.52041 9.43182 1.30685 9.43182 1.08693C9.43182 0.815201 9.51579 0.653459 9.68375 0.601706C9.8653 0.536985 10.0654 0.504621 10.2858 0.504621C10.4927 0.504621 10.7385 0.536985 11.0231 0.601706C11.3078 0.666367 11.5795 0.763448 11.8382 0.89283C12.1099 1.02221 12.3366 1.18395 12.5175 1.37806C12.7114 1.57216 12.8083 1.79857 12.8083 2.05739C12.8083 2.51026 12.7694 2.98901 12.6923 3.49363C13.1579 5.6804 13.5463 7.8736 13.8563 10.0733C14.1669 12.2601 14.3997 14.4662 14.5553 16.6918C14.7103 18.6065 14.8331 20.5086 14.9239 22.3978C15.0277 24.287 15.1506 26.1761 15.2926 28.0653C15.3185 28.182 15.3377 28.2919 15.3506 28.3957C15.3636 28.4988 15.3704 28.6088 15.3704 28.7255ZM25.6173 20.7291C25.6173 21.8543 25.5197 22.9802 25.3258 24.106C25.1449 25.2189 24.7633 26.2731 24.181 27.2699C24.0001 27.5675 23.7926 27.8584 23.5598 28.1431C23.327 28.4148 23.0682 28.6606 22.7836 28.8805C22.5119 29.1133 22.208 29.2949 21.8715 29.424C21.5479 29.5666 21.2052 29.6376 20.8427 29.6376C20.2734 29.6376 19.7757 29.5018 19.3484 29.23C18.9346 28.9713 18.5722 28.6285 18.2616 28.2012C17.9645 27.7614 17.712 27.2699 17.5051 26.7264C17.3112 26.17 17.1556 25.6067 17.0395 25.0379C16.9358 24.4556 16.858 23.8923 16.8061 23.3489C16.7678 22.8054 16.748 22.3268 16.748 21.913C16.748 21.4467 16.7678 20.936 16.8061 20.3796C16.845 19.8231 16.9098 19.2537 17.0006 18.6713C17.1037 18.089 17.2334 17.5135 17.3884 16.9441C17.557 16.3748 17.77 15.8443 18.0288 15.3526C18.2875 14.8479 18.5981 14.4015 18.9606 14.0133C19.3231 13.6122 19.743 13.2952 20.2221 13.0623V13.0817C20.6359 12.8618 21.0502 12.7518 21.4639 12.7518C21.7227 12.7518 21.9234 12.81 22.0654 12.9264C22.208 13.0299 22.2729 13.2111 22.2599 13.4699C22.9713 13.5993 23.5468 13.9421 23.9871 14.4986C24.4267 15.0549 24.7633 15.7019 24.9961 16.4395C25.2419 17.177 25.4036 17.934 25.4815 18.7103C25.5716 19.4865 25.6173 20.1597 25.6173 20.7291ZM21.2312 15.8766C21.0113 15.8766 20.8044 15.7925 20.6099 15.6243C20.3642 15.9995 20.1573 16.433 19.9893 16.9247C19.8208 17.4035 19.6849 17.9018 19.5818 18.4194C19.491 18.9239 19.4262 19.4347 19.3873 19.9522C19.3484 20.4703 19.3292 20.9551 19.3292 21.4084C19.3292 21.7833 19.3484 22.2687 19.3873 22.8641C19.4262 23.4458 19.4972 24.035 19.6009 24.6303C19.7176 25.2251 19.8726 25.7815 20.0665 26.299C20.2734 26.8166 20.5389 27.1988 20.8625 27.4446C21.2633 27.2112 21.5936 26.8425 21.8524 26.3379C22.1241 25.8204 22.3371 25.2578 22.4927 24.6495C22.6477 24.0412 22.7514 23.4267 22.8033 22.8054C22.8675 22.1847 22.9003 21.6542 22.9003 21.2139C22.9003 20.8909 22.8805 20.4703 22.8416 19.9522C22.8033 19.4347 22.7385 18.911 22.6477 18.3805C22.5576 17.837 22.4279 17.3323 22.2599 16.8665C22.1043 16.4006 21.9036 16.0513 21.6579 15.8184C21.5418 15.8572 21.3991 15.8766 21.2312 15.8766ZM34.1951 14.615C34.1951 16.4006 34.0525 18.1606 33.7678 19.8941C33.4961 21.6283 33.1663 23.3557 32.7779 25.0762C32.7267 25.2448 32.6939 25.3869 32.681 25.5036C32.6038 25.8785 32.5192 26.2669 32.429 26.6683C32.3512 27.0562 32.2222 27.4446 32.0406 27.8325C31.8727 28.1561 31.6399 28.4408 31.3422 28.6866C31.0575 28.9194 30.7408 29.0361 30.3912 29.0361C30.2486 29.0361 30.0998 29.0034 29.9448 28.9392C29.7898 28.8743 29.6212 28.7903 29.4403 28.6866C29.1816 28.5056 28.9876 28.2598 28.858 27.9492C28.7289 27.6256 28.6184 27.2958 28.5282 26.9592L28.4893 26.8233V26.8425C28.2695 26.0014 28.0818 25.1608 27.9268 24.3197C27.7841 23.4786 27.6421 22.6312 27.4995 21.7771C27.4217 21.2466 27.3445 20.7223 27.2667 20.2048C27.1889 19.6743 27.0987 19.15 26.995 18.6324L26.7232 17.4876C26.6584 17.2288 26.5874 16.9506 26.5096 16.653C26.4454 16.3424 26.3805 16.0513 26.3157 15.7796C26.2509 15.5078 26.199 15.2684 26.1607 15.0614C26.1218 14.8415 26.102 14.6927 26.102 14.615C26.102 14.3692 26.1798 14.2075 26.3348 14.1298C26.5034 14.0392 26.6912 13.994 26.898 13.994C27.3117 13.994 27.6742 14.0845 27.9848 14.2656C28.3084 14.4468 28.5412 14.7444 28.6832 15.1585C28.761 15.3784 28.8259 15.6113 28.8771 15.8572C28.942 16.103 28.9938 16.3489 29.0327 16.5948C29.2526 17.4487 29.4594 18.3545 29.6539 19.3118C29.8608 20.2567 30.0356 21.1688 30.1776 22.0489L30.3523 23.0388C30.3653 23.1031 30.3715 23.1549 30.3715 23.1939C30.3715 23.2328 30.3715 23.2649 30.3715 23.2908C30.3845 23.3168 30.3912 23.3489 30.3912 23.3878C30.4042 23.4267 30.4172 23.4847 30.4302 23.5625C30.7148 22.1909 30.9538 20.8193 31.1483 19.4476C31.3422 18.0637 31.4392 16.6724 31.4392 15.2749C31.4392 14.9902 31.42 14.7121 31.3811 14.4403C31.3552 14.1686 31.3225 13.884 31.2842 13.5864C31.2453 13.3146 31.2064 13.0364 31.1675 12.7518C31.1415 12.4542 31.1285 12.1565 31.1285 11.8589C31.1285 11.5872 31.2125 11.3996 31.3811 11.2961C31.5491 11.1926 31.7559 11.1408 32.0017 11.1408C32.2993 11.1408 32.5711 11.1602 32.8168 11.1991C33.0626 11.2378 33.2762 11.3155 33.4572 11.4319C33.6387 11.5354 33.7875 11.6907 33.9036 11.8978C34.0203 12.0918 34.0981 12.3506 34.1364 12.6741C34.1624 12.9717 34.1753 13.2952 34.1753 13.6446C34.1883 13.981 34.1951 14.3045 34.1951 14.615ZM38.1539 12.3636C38.1539 12.5835 38.1021 12.7453 37.9989 12.8488C37.9082 12.9394 37.7334 12.9847 37.4747 12.9847C37.358 12.9847 37.177 12.9717 36.9313 12.9459C36.6855 12.907 36.4329 12.8553 36.1742 12.7905C35.9284 12.7259 35.7086 12.6353 35.5147 12.5188C35.3332 12.4024 35.243 12.2601 35.243 12.0918C35.243 12.0401 35.2622 11.8978 35.3011 11.6648C35.34 11.419 35.385 11.1602 35.4369 10.8885C35.5017 10.6167 35.5536 10.3709 35.5925 10.151C35.6438 9.93099 35.6827 9.80803 35.7086 9.78215V9.80154C35.7735 9.69804 35.8513 9.63338 35.9414 9.6075C36.0322 9.58162 36.123 9.56866 36.2131 9.56866C36.3298 9.56866 36.4786 9.58805 36.6596 9.62689C36.8535 9.65277 37.0412 9.69804 37.2221 9.76276C37.4166 9.81451 37.5914 9.88566 37.7464 9.97625C37.9014 10.0669 37.9989 10.1639 38.0372 10.2674C38.0761 10.3709 38.0959 10.5132 38.0959 10.6944C38.1089 10.8626 38.1089 11.0179 38.0959 11.1602C38.0959 11.212 38.0891 11.2767 38.0761 11.3543C38.0761 11.419 38.0761 11.4707 38.0761 11.5096C38.0761 11.5743 38.0761 11.639 38.0761 11.7037C38.0891 11.7683 38.1021 11.8331 38.115 11.8978C38.128 11.9624 38.1348 12.0336 38.1348 12.1113C38.1478 12.1889 38.1539 12.273 38.1539 12.3636ZM38.8721 27.8325C38.8721 28.1301 38.8011 28.3438 38.6584 28.4729C38.5294 28.5896 38.3157 28.6477 38.0181 28.6477C37.8631 28.6477 37.6883 28.6285 37.4938 28.5896C37.3129 28.5507 37.132 28.4988 36.9504 28.434C36.7695 28.3568 36.6015 28.266 36.4459 28.1623C36.2909 28.0591 36.1742 27.9424 36.097 27.8133C36.0452 27.7355 35.9995 27.4959 35.9612 27.0951C35.9223 26.6937 35.8895 26.1959 35.8636 25.6005C35.8512 25.0052 35.8315 24.3388 35.8056 23.6015C35.7926 22.8641 35.7796 22.1199 35.7667 21.3695C35.7667 20.6192 35.7667 19.888 35.7667 19.1759C35.7667 18.4645 35.7667 17.8432 35.7667 17.3129V15.8184C35.7667 15.689 35.7667 15.5596 35.7667 15.4302C35.7796 15.3008 35.8056 15.1908 35.8445 15.1002C35.8963 14.9967 35.9673 14.9126 36.0581 14.8479C36.1612 14.7832 36.3039 14.7509 36.4848 14.7509C37.0542 14.7509 37.4685 14.9126 37.7272 15.2361C37.9989 15.5467 38.1669 15.9672 38.2317 16.4977C38.296 17.287 38.3417 18.076 38.3676 18.8659C38.4065 19.6422 38.4386 20.4314 38.4645 21.2337C38.4905 21.9581 38.5096 22.6763 38.5226 23.3878C38.5485 24.0869 38.5936 24.7853 38.6584 25.4838C38.6714 25.6265 38.6844 25.7624 38.6974 25.8914C38.7103 26.0211 38.7295 26.1502 38.7554 26.2799C38.7813 26.5386 38.8073 26.7974 38.8332 27.0562C38.8591 27.302 38.8721 27.5607 38.8721 27.8325ZM48.1291 25.1349C48.1291 25.5227 48.0192 25.9242 47.7994 26.3379C47.5919 26.7523 47.3202 27.134 46.9843 27.4829C46.6477 27.8195 46.2593 28.098 45.8197 28.3179C45.393 28.5377 44.9657 28.6477 44.539 28.6477C43.9307 28.6477 43.4065 28.5316 42.9668 28.2981C42.5271 28.0523 42.1455 27.7293 41.8219 27.3279C41.4984 26.9141 41.2335 26.4479 41.026 25.9303C40.8321 25.4128 40.6771 24.8823 40.5604 24.3388C40.4437 23.7824 40.3597 23.2328 40.3078 22.6893C40.2695 22.1329 40.2497 21.6283 40.2497 21.175C40.2497 20.7872 40.2695 20.3277 40.3078 19.7972C40.3597 19.2667 40.4375 18.717 40.5412 18.1476C40.6573 17.5782 40.8129 17.0153 41.0068 16.4589C41.2007 15.9025 41.4403 15.4043 41.725 14.9644C42.0226 14.5245 42.3715 14.1686 42.7729 13.8969C43.1866 13.6251 43.659 13.4893 44.1894 13.4893C44.6032 13.4893 44.9725 13.5734 45.2954 13.7416C45.632 13.9098 45.9104 14.1362 46.1303 14.4209C46.3631 14.6927 46.5378 15.0097 46.6539 15.3719C46.7836 15.7343 46.8484 16.1095 46.8484 16.4977C46.8484 17.0023 46.7317 17.5522 46.4989 18.1476C46.2661 18.7424 45.9617 19.3186 45.5869 19.875C45.2244 20.4314 44.8107 20.936 44.3444 21.3887C43.8918 21.829 43.4392 22.165 42.9859 22.3978C43.0119 22.6312 43.0637 22.974 43.1415 23.4267C43.2193 23.8664 43.3225 24.3067 43.4521 24.7464C43.5942 25.1868 43.756 25.5684 43.9369 25.8914C44.1314 26.215 44.3574 26.3768 44.6162 26.3768C44.7458 26.3768 44.8557 26.3379 44.9465 26.2607C45.0496 26.1829 45.1404 26.0792 45.2182 25.9501C45.2954 25.8204 45.3602 25.6784 45.4121 25.5227C45.477 25.3677 45.535 25.2189 45.5869 25.0762L45.703 24.8045C45.7289 24.7662 45.7419 24.7403 45.7419 24.7273C45.7548 24.7143 45.7678 24.6946 45.7808 24.6686C45.8715 24.5006 45.9555 24.3456 46.0333 24.203C46.1235 24.0609 46.2464 23.938 46.402 23.8343H46.3822C46.4341 23.7824 46.486 23.7565 46.5378 23.7565C46.6027 23.7435 46.6607 23.7373 46.7126 23.7373C46.8546 23.7373 47.0102 23.7824 47.1782 23.8732C47.3461 23.964 47.5018 24.0801 47.6438 24.2227C47.7864 24.3518 47.9025 24.5006 47.9933 24.6686C48.0841 24.8243 48.1291 24.9793 48.1291 25.1349ZM44.2864 16.5754C44.2864 16.4459 44.2802 16.3101 44.2673 16.1678C44.2543 16.0254 44.2216 15.9025 44.1703 15.7989C43.9888 16.0189 43.827 16.2842 43.685 16.5948C43.5553 16.8924 43.4454 17.2094 43.3552 17.5458C43.2644 17.8691 43.1866 18.1995 43.1218 18.5355C43.0705 18.8721 43.0316 19.1827 43.0057 19.4674C43.3422 19.066 43.6399 18.6133 43.8986 18.1087C44.1573 17.5912 44.2864 17.08 44.2864 16.5754ZM55.601 14.4597C55.601 14.615 55.5423 14.7444 55.4262 14.8479C55.3225 14.9514 55.1934 15.042 55.0378 15.1197C54.8828 15.1843 54.721 15.2297 54.5525 15.2555C54.3975 15.2814 54.2684 15.2943 54.1647 15.2943C54.0091 15.2943 53.8609 15.2814 53.7182 15.2555C53.5762 15.2167 53.4335 15.1779 53.2915 15.1391C53.1489 15.1002 53.013 15.0679 52.884 15.042C52.7543 15.0032 52.6184 14.9838 52.4764 14.9838C52.2819 14.9838 52.088 15.0162 51.8941 15.0808C51.7002 15.1455 51.5255 15.2361 51.3698 15.3526C51.2148 15.469 51.0852 15.6113 50.982 15.7796C50.8913 15.9478 50.8462 16.1354 50.8462 16.3424C50.8462 16.653 50.911 16.9635 51.0401 17.2741C51.1697 17.5714 51.3377 17.8759 51.5446 18.1866C51.7644 18.4966 52.0102 18.814 52.2819 19.1376C52.5666 19.4476 52.8642 19.7651 53.1748 20.0881C53.5502 20.5025 53.9251 20.923 54.3005 21.3498C54.6883 21.7771 55.0316 22.2236 55.3293 22.6893C55.6393 23.1549 55.8918 23.6465 56.0857 24.1641C56.2803 24.6816 56.3772 25.2251 56.3772 25.7945C56.3772 26.2861 56.2926 26.7264 56.1246 27.1142C55.9696 27.5027 55.743 27.8325 55.4454 28.1042C55.1607 28.3759 54.8118 28.5828 54.3975 28.7255C53.9967 28.8805 53.5564 28.9583 53.0779 28.9583C52.9482 28.9583 52.7481 28.9324 52.4764 28.8805C52.2177 28.8286 51.92 28.7576 51.5835 28.6674C51.2469 28.5637 50.8981 28.4537 50.5356 28.337C50.1861 28.2209 49.8625 28.098 49.5655 27.9683C49.2808 27.8263 49.0412 27.6904 48.8473 27.5607C48.6658 27.4187 48.5756 27.289 48.5756 27.1729C48.5756 27.0173 48.6466 26.8623 48.7886 26.7066C48.9313 26.5386 49.0993 26.3898 49.2938 26.2607C49.4877 26.1181 49.6884 26.0014 49.8952 25.9112C50.1151 25.8204 50.296 25.7753 50.4386 25.7753C50.6325 25.7753 50.8332 25.8204 51.0401 25.9112C51.2599 26.0014 51.4797 26.1051 51.7002 26.2218C51.946 26.3509 52.1917 26.4676 52.4375 26.5708C52.6962 26.6745 52.9612 26.7264 53.2329 26.7264C53.4403 26.7264 53.5564 26.6554 53.5824 26.5127C53.6213 26.3707 53.6404 26.2089 53.6404 26.0273C53.6404 25.5746 53.5632 25.1479 53.4076 24.7464C53.2526 24.3327 53.0519 23.9312 52.8062 23.5434C52.5604 23.1549 52.2757 22.7795 51.9521 22.4176C51.6286 22.0421 51.3056 21.6734 50.982 21.3109C50.6455 20.949 50.3157 20.5864 49.9922 20.2239C49.6816 19.862 49.4037 19.4933 49.1579 19.1179C48.9115 18.73 48.7115 18.3354 48.5558 17.934C48.4138 17.5328 48.3428 17.1059 48.3428 16.653C48.3428 16.0966 48.4657 15.5984 48.7115 15.1585C48.9572 14.7056 49.274 14.3174 49.6624 13.994C50.0632 13.6705 50.5096 13.4246 51.0012 13.2564C51.5057 13.0752 52.0102 12.9847 52.5153 12.9847C52.6833 12.9847 52.942 13.0235 53.2915 13.1011C53.6404 13.1658 53.9837 13.2629 54.3197 13.3923C54.6562 13.5216 54.9538 13.6769 55.2126 13.8581C55.4713 14.0392 55.601 14.2398 55.601 14.4597ZM76.8124 21.078C76.8124 22.5923 76.5666 23.9121 76.0751 25.0379C75.5965 26.1632 74.9234 27.1013 74.0564 27.8522C73.1901 28.6026 72.1545 29.159 70.9516 29.5209C69.7611 29.8964 68.4544 30.0841 67.0317 30.0841H66.3715C66.2419 30.0841 66.048 30.0774 65.7892 30.0644C65.5305 30.0644 65.2656 30.0384 64.9939 29.9872C64.7352 29.9483 64.5018 29.8773 64.2949 29.7735C64.101 29.6698 64.004 29.5277 64.004 29.3468C64.004 29.1393 64.0491 28.9324 64.1399 28.7255C64.243 28.5316 64.3727 28.3568 64.5277 28.2012C64.6833 28.0332 64.858 27.8973 65.0519 27.7936C65.2458 27.6775 65.4397 27.5996 65.6342 27.5607C65.5305 27.4317 65.4527 27.2569 65.4015 27.037C65.3496 26.8166 65.3039 26.5837 65.2656 26.3379C65.2267 26.0921 65.194 25.8531 65.168 25.6197C65.1557 25.3739 65.1427 25.167 65.1297 24.999C64.8963 22.9931 64.6963 20.9941 64.5277 19.0018C64.3597 17.0088 64.2757 14.9967 64.2757 12.9653C64.2757 11.6713 64.2949 10.3903 64.3338 9.12227C64.3727 7.8542 64.4048 6.57323 64.4307 5.27928C64.4567 4.74872 64.4635 4.22471 64.4505 3.70712C64.4505 3.18953 64.4696 2.66552 64.5085 2.13502C64.4307 2.1609 64.3467 2.17381 64.256 2.17381C64.1658 2.17381 64.0689 2.17381 63.9651 2.17381C63.7712 2.17381 63.5767 2.14144 63.3828 2.07678C63.2019 1.99915 63.1111 1.82445 63.1111 1.55271C63.1111 1.21632 63.1821 0.944585 63.3248 0.737574C63.4668 0.530501 63.6484 0.37524 63.8682 0.271735C64.088 0.15526 64.3338 0.0841134 64.6055 0.058237C64.8902 0.0193914 65.168 0 65.4397 0C66.6822 0 67.8851 0.15526 69.0497 0.465839C70.2143 0.776356 71.2425 1.2551 72.1354 1.90207C73.0283 2.54904 73.7464 3.37715 74.2898 4.38645C74.8332 5.38279 75.105 6.57323 75.105 7.95771C75.105 9.09639 74.8975 10.1833 74.4838 11.2184C74.0694 12.2536 73.4618 13.1723 72.6596 13.9745C73.384 14.2851 74.0052 14.6927 74.5227 15.1973C75.0531 15.689 75.4866 16.2454 75.8225 16.8665C76.1591 17.4876 76.4048 18.1606 76.5604 18.885C76.7284 19.5965 76.8124 20.3277 76.8124 21.078ZM72.1545 7.68598C72.1545 6.90962 72.0316 6.22387 71.7859 5.62865C71.5401 5.02046 71.1974 4.49645 70.7577 4.05649C70.3174 3.60362 69.7938 3.24135 69.1855 2.96961C68.5773 2.68491 67.911 2.47141 67.1867 2.32906C67.2126 2.39379 67.2256 2.45202 67.2256 2.50377C67.2256 2.55553 67.2256 2.6008 67.2256 2.63964C67.2256 3.86886 67.2126 5.08518 67.1867 6.28853C67.1607 7.47896 67.1478 8.68231 67.1478 9.89863V11.9172C67.1478 12.1759 67.1545 12.4412 67.1675 12.7129C67.1799 12.9717 67.1867 13.237 67.1867 13.5087C67.5232 13.3664 67.8591 13.2952 68.1957 13.2952C68.5452 13.2823 68.8947 13.2758 69.2436 13.2758C70.2143 12.6677 70.9386 11.8718 71.4172 10.8885C71.9087 9.89214 72.1545 8.82466 72.1545 7.68598ZM73.9014 21.0391C73.9014 20.4185 73.8434 19.8163 73.7267 19.2346C73.6236 18.6522 73.4358 18.1217 73.1641 17.6431C72.8924 17.1511 72.5368 16.7306 72.0965 16.3813C71.6568 16.0319 71.1066 15.7731 70.4471 15.6049C69.4634 16.1613 68.4155 16.5365 67.3034 16.7306C67.4065 18.1927 67.5294 19.6551 67.672 21.1169C67.827 22.5664 68.0407 24.0152 68.3124 25.4647C68.3772 25.8013 68.4482 26.1372 68.5254 26.4738C68.6162 26.7974 68.6742 27.134 68.7002 27.4829C69.5672 27.3668 70.3242 27.1272 70.9707 26.7653C71.6309 26.3898 72.1743 25.9242 72.601 25.3677C73.0413 24.7983 73.3642 24.1449 73.5717 23.4075C73.7915 22.6695 73.9014 21.8803 73.9014 21.0391ZM86.4381 28.434C86.4381 28.6928 86.3738 28.8675 86.2442 28.9583C86.1151 29.0621 85.9336 29.1133 85.7008 29.1133C85.0925 29.1133 84.6529 28.9521 84.3812 28.6285C84.1224 28.3049 83.9285 27.8782 83.7988 27.3471C83.7599 27.1661 83.721 26.9852 83.6827 26.8042C83.6438 26.6097 83.6111 26.4219 83.5852 26.241C83.5599 26.073 83.5339 25.9563 83.508 25.8914C83.4821 25.8272 83.4561 25.7043 83.4302 25.5227C83.2752 25.8982 83.0807 26.2928 82.8479 26.7066C82.628 27.108 82.3693 27.4829 82.0717 27.8325C81.774 28.169 81.4375 28.447 81.0627 28.6674C80.7002 28.8873 80.2994 28.9972 79.8592 28.9972C79.3936 28.9972 79.0051 28.8873 78.6951 28.6674C78.3845 28.434 78.1388 28.1493 77.9572 27.8133C77.7893 27.4638 77.6664 27.0821 77.5886 26.6683C77.5244 26.2539 77.4916 25.8593 77.4916 25.4838C77.4916 24.6044 77.5756 23.6533 77.7442 22.6312C77.9251 21.5956 78.1709 20.5673 78.4815 19.5452C78.7921 18.5095 79.154 17.5199 79.5683 16.5754C79.982 15.6178 80.4353 14.7832 80.9268 14.0716V14.091L81.0429 13.9163C81.1856 13.7222 81.3473 13.5151 81.5283 13.2952C81.7222 13.0623 81.9488 12.9459 82.2075 12.9459C82.4533 12.9459 82.667 13.0558 82.8479 13.2758C83.0294 13.4829 83.1585 13.7028 83.2363 13.9357C83.5728 14.0004 83.8439 14.0845 84.0514 14.188C84.2583 14.2786 84.4201 14.3951 84.5362 14.5374C84.6529 14.6797 84.7307 14.8479 84.7696 15.042C84.8078 15.2232 84.8276 15.4237 84.8276 15.6437C84.8276 15.7343 84.8276 15.8313 84.8276 15.9348C84.8276 16.0383 84.8208 16.1419 84.8079 16.2454C84.7949 16.3489 84.7887 16.4718 84.7887 16.6141C84.7887 16.7565 84.7887 16.8859 84.7887 17.0023C84.7887 17.1317 84.8078 17.3 84.8468 17.507C84.8986 17.7141 84.9505 17.9278 85.0024 18.1476L85.1382 18.8659C85.2024 19.2408 85.2543 19.6681 85.2932 20.1467C85.3451 20.6254 85.4031 21.104 85.468 21.5826C85.5198 22.0748 85.5717 22.5534 85.623 23.0191C85.6748 23.4718 85.7267 23.8923 85.7786 24.2808L86.2442 27.1531L86.3022 27.4829C86.3281 27.6515 86.3541 27.8065 86.38 27.9492C86.4189 28.0912 86.4381 28.253 86.4381 28.434ZM81.9939 17.2741C81.9939 17.2481 81.9877 17.2094 81.9747 17.1576C81.9618 17.0929 81.9488 17.0282 81.9358 16.9635C81.6382 17.5974 81.3733 18.2897 81.1405 19.04C80.92 19.778 80.7329 20.5346 80.5773 21.3109C80.4353 22.0748 80.3254 22.8443 80.2476 23.6206C80.1827 24.3845 80.1506 25.109 80.1506 25.7945C80.1506 25.8593 80.1506 25.9174 80.1506 25.9692C80.1506 26.0211 80.1568 26.073 80.1697 26.1249V26.144C80.4804 25.6654 80.7459 25.0379 80.9657 24.261C81.1985 23.4718 81.3924 22.6504 81.548 21.7963C81.703 20.9292 81.813 20.0949 81.8778 19.2926C81.9556 18.4774 81.9939 17.8043 81.9939 17.2741ZM95.7729 26.5127C95.7729 26.7455 95.676 26.9592 95.4821 27.1531C95.2876 27.347 95.0356 27.5218 94.725 27.6775C94.4274 27.8195 94.0847 27.9492 93.6963 28.0653C93.3214 28.182 92.9528 28.279 92.5903 28.3568C92.2278 28.421 91.8919 28.4729 91.5813 28.5118C91.2837 28.5507 91.0509 28.5698 90.8823 28.5698C90.5593 28.5698 90.216 28.5445 89.8541 28.4927C89.4917 28.4408 89.136 28.363 88.7865 28.2598C88.4369 28.1431 88.1072 28.0011 87.7966 27.8325C87.486 27.6515 87.2211 27.4378 87.0012 27.192V27.2112C86.8975 27.108 86.8005 26.9852 86.7098 26.8425C86.6067 26.7005 86.5548 26.5386 86.5548 26.3577C86.5548 26.241 86.5999 26.1372 86.6906 26.0471C86.7814 25.9563 86.8845 25.8914 87.0012 25.8531C87.1303 25.5425 87.2662 25.2319 87.4088 24.9212C87.5508 24.6106 87.6935 24.3067 87.8355 24.0091L88.127 23.3297C88.8124 21.984 89.4466 20.6513 90.0283 19.3315C90.6235 18.0118 91.2126 16.6465 91.7943 15.2361L91.0181 15.2749L90.0672 15.3332L89.4268 15.4108C89.2459 15.4367 89.0711 15.4561 88.9032 15.469C88.7476 15.4819 88.5858 15.4884 88.4178 15.4884C87.9263 15.4884 87.6805 15.2491 87.6805 14.7703C87.6805 14.5503 87.7064 14.3562 87.7577 14.188C87.8096 14.0069 87.9065 13.8451 88.0492 13.7028C88.114 13.6251 88.2819 13.554 88.5536 13.4893C88.8383 13.4116 89.1681 13.347 89.5435 13.2952C89.9184 13.2305 90.3197 13.1723 90.7464 13.1205C91.1867 13.0688 91.6072 13.0235 92.008 12.9847C92.4094 12.9459 92.7651 12.9199 93.0757 12.907C93.3986 12.8811 93.6252 12.8682 93.7549 12.8682C93.9877 12.8682 94.2008 12.9005 94.3953 12.9653C94.6021 13.0299 94.7059 13.224 94.7059 13.5475C94.7059 13.7286 94.6602 13.9292 94.57 14.1492C94.4793 14.3562 94.3823 14.5438 94.2786 14.7121C94.3045 14.7767 94.3175 14.8738 94.3175 15.0032C94.3175 15.1455 94.2656 15.3849 94.1625 15.7213C94.0587 16.0578 93.9167 16.4654 93.7352 16.9441C93.5672 17.4229 93.3665 17.9531 93.1337 18.5355C92.9009 19.1179 92.6551 19.7132 92.3964 20.3215C92.1506 20.9292 91.8981 21.5375 91.6393 22.1458C91.3806 22.7541 91.1348 23.3229 90.902 23.8534L89.8152 26.3768C90.0351 26.4287 90.2876 26.4547 90.5717 26.4547C91.154 26.4547 91.7042 26.3447 92.2216 26.1249C92.7521 25.9044 93.2047 25.6845 93.5802 25.4647C93.8 25.348 93.9939 25.251 94.1625 25.1738C94.3304 25.083 94.4663 25.0379 94.57 25.0379C94.738 25.0379 94.893 25.0892 95.0356 25.1929C95.1906 25.2837 95.3203 25.4066 95.4234 25.5616C95.5401 25.7043 95.6241 25.8593 95.676 26.0273C95.7408 26.1959 95.7729 26.3577 95.7729 26.5127ZM104.099 25.1349C104.099 25.5227 103.989 25.9242 103.768 26.3379C103.562 26.7523 103.29 27.134 102.953 27.4829C102.617 27.8195 102.229 28.098 101.789 28.3179C101.362 28.5377 100.935 28.6477 100.508 28.6477C99.9004 28.6477 99.3761 28.5316 98.9364 28.2981C98.4961 28.0523 98.1145 27.7293 97.7916 27.3279C97.468 26.9141 97.2025 26.4479 96.9956 25.9303C96.8017 25.4128 96.6461 24.8823 96.53 24.3388C96.4133 23.7824 96.3293 23.2328 96.2774 22.6893C96.2385 22.1329 96.2194 21.6283 96.2194 21.175C96.2194 20.7872 96.2385 20.3277 96.2774 19.7972C96.3293 19.2667 96.4071 18.717 96.5102 18.1476C96.6269 17.5782 96.7819 17.0153 96.9765 16.4589C97.1704 15.9025 97.4099 15.4043 97.694 14.9644C97.9916 14.5245 98.3411 14.1686 98.7425 13.8969C99.1562 13.6251 99.6286 13.4893 100.159 13.4893C100.573 13.4893 100.941 13.5734 101.265 13.7416C101.602 13.9098 101.879 14.1362 102.1 14.4209C102.333 14.6927 102.507 15.0097 102.624 15.3719C102.753 15.7343 102.817 16.1095 102.817 16.4977C102.817 17.0023 102.701 17.5522 102.469 18.1476C102.236 18.7424 101.931 19.3186 101.557 19.875C101.194 20.4314 100.78 20.936 100.314 21.3887C99.8615 21.829 99.4088 22.165 98.9556 22.3978C98.9815 22.6312 99.0334 22.974 99.1112 23.4267C99.1884 23.8664 99.2921 24.3067 99.4218 24.7464C99.5638 25.1868 99.7256 25.5684 99.9065 25.8914C100.101 26.215 100.327 26.3768 100.586 26.3768C100.715 26.3768 100.825 26.3379 100.916 26.2607C101.019 26.1829 101.11 26.0792 101.187 25.9501C101.265 25.8204 101.33 25.6784 101.382 25.5227C101.447 25.3677 101.505 25.2189 101.557 25.0762L101.673 24.8045C101.699 24.7662 101.712 24.7403 101.712 24.7273C101.724 24.7143 101.737 24.6946 101.75 24.6686C101.841 24.5006 101.925 24.3456 102.002 24.203C102.093 24.0609 102.216 23.938 102.372 23.8343H102.352C102.404 23.7824 102.456 23.7565 102.507 23.7565C102.572 23.7435 102.63 23.7373 102.682 23.7373C102.824 23.7373 102.979 23.7824 103.148 23.8732C103.316 23.964 103.471 24.0801 103.613 24.2227C103.755 24.3518 103.872 24.5006 103.963 24.6686C104.053 24.8243 104.099 24.9793 104.099 25.1349ZM100.256 16.5754C100.256 16.4459 100.249 16.3101 100.237 16.1678C100.224 16.0254 100.191 15.9025 100.139 15.7989C99.9584 16.0189 99.7966 16.2842 99.6546 16.5948C99.5249 16.8924 99.415 17.2094 99.3242 17.5458C99.2341 17.8691 99.1562 18.1995 99.0914 18.5355C99.0395 18.8721 99.0013 19.1827 98.9753 19.4674C99.3113 19.066 99.6089 18.6133 99.8676 18.1087C100.126 17.5912 100.256 17.08 100.256 16.5754ZM106.816 28.9972C106.621 28.9972 106.408 28.9713 106.175 28.9194C105.955 28.8675 105.742 28.7835 105.534 28.6674C105.341 28.5507 105.173 28.4087 105.03 28.2401C104.901 28.0591 104.836 27.8454 104.836 27.5996C104.836 27.2371 104.849 26.8814 104.875 26.5325C104.914 26.17 104.952 25.8142 104.991 25.4647V25.4838L105.108 24.1838C105.147 23.7176 105.179 23.2068 105.205 22.6504C105.231 22.094 105.25 21.5313 105.263 20.9619C105.289 20.3796 105.308 19.8102 105.321 19.2537C105.334 18.6973 105.341 18.1866 105.341 17.7203C105.341 17.4487 105.334 17.177 105.321 16.9053C105.321 16.6206 105.321 16.3359 105.321 16.0513C105.308 15.8054 105.302 15.5337 105.302 15.2361C105.302 14.9256 105.302 14.6409 105.302 14.3821C105.302 14.1104 105.334 13.8904 105.399 13.7222C105.476 13.541 105.683 13.4505 106.02 13.4505C106.317 13.4505 106.628 13.5281 106.952 13.6834C107.288 13.8386 107.52 14.0586 107.65 14.3433H107.631C107.695 14.4856 107.741 14.7186 107.767 15.042C107.805 15.3526 107.831 15.6308 107.844 15.8766C108.064 15.5402 108.31 15.1843 108.581 14.8091C108.866 14.4339 109.17 14.091 109.494 13.7804C109.817 13.457 110.16 13.1917 110.522 12.9847C110.885 12.7776 111.272 12.6741 111.687 12.6741C112.23 12.6741 112.644 12.81 112.929 13.0817C113.213 13.3534 113.42 13.6963 113.55 14.1104C113.679 14.5115 113.75 14.945 113.763 15.4108C113.776 15.8637 113.783 16.2777 113.783 16.653V16.8082C113.783 16.9635 113.776 17.1188 113.763 17.2741C113.763 17.4164 113.737 17.5522 113.686 17.6814C113.647 17.7981 113.569 17.8951 113.453 17.9729C113.349 18.0507 113.2 18.089 113.006 18.089C112.799 18.089 112.58 18.0637 112.346 18.0118C112.113 17.9469 111.894 17.8561 111.687 17.74C111.493 17.6233 111.324 17.4811 111.182 17.3129C111.04 17.1317 110.962 16.9247 110.949 16.6918C110.949 16.5883 110.949 16.4848 110.949 16.3813C110.949 16.2777 110.956 16.1742 110.969 16.0707C110.969 16.006 110.969 15.9284 110.969 15.8378C110.982 15.7343 110.988 15.6372 110.988 15.5467C110.574 15.9607 110.205 16.4718 109.882 17.08C109.571 17.6882 109.286 18.3354 109.028 19.0209C108.782 19.7064 108.569 20.3987 108.387 21.0978C108.206 21.7833 108.051 22.4046 107.922 22.961V23.0191C107.883 23.4205 107.857 23.8151 107.844 24.203C107.831 24.5914 107.818 24.9922 107.805 25.4066C107.792 25.8723 107.773 26.3447 107.747 26.8233C107.734 27.302 107.702 27.7676 107.65 28.2209C107.624 28.4667 107.546 28.6545 107.417 28.7835C107.301 28.9262 107.1 28.9972 106.816 28.9972Z" fill="#434343"/>
</svg>
